<svg xmlns="http://www.w3.org/2000/svg" viewBox="0 0 180 180">
  <rect width="180" height="180" rx="36" fill="#111"/>
  <!-- Left panel -->
  <rect x="12" y="20" width="70" height="140" rx="8" fill="#2a2a2a"/>
  <!-- Right panel -->
  <rect x="98" y="20" width="70" height="140" rx="8" fill="#1e3a5f"/>
  <!-- Divider line -->
  <rect x="86" y="20" width="8" height="140" rx="4" fill="#4a9eff"/>
  <!-- Left image placeholder lines -->
  <rect x="22" y="40" width="50" height="6" rx="3" fill="#555"/>
  <rect x="22" y="54" width="40" height="6" rx="3" fill="#555"/>
  <rect x="22" y="80" width="50" height="32" rx="4" fill="#3a3a3a"/>
  <!-- Right image placeholder lines -->
  <rect x="108" y="40" width="50" height="6" rx="3" fill="#2a5080"/>
  <rect x="108" y="54" width="40" height="6" rx="3" fill="#2a5080"/>
  <rect x="108" y="80" width="50" height="32" rx="4" fill="#1a3a6a"/>
  <!-- Arrows on divider -->
  <polyline points="83,90 78,85 83,80" stroke="#4a9eff" stroke-width="2.5" fill="none" stroke-linecap="round" stroke-linejoin="round"/>
  <polyline points="97,90 102,85 97,80" stroke="#4a9eff" stroke-width="2.5" fill="none" stroke-linecap="round" stroke-linejoin="round"/>
</svg>
